<mxfile host="app.diagrams.net" modified="2022-10-12T00:23:35.049Z" agent="5.0 (Windows NT 10.0; Win64; x64) AppleWebKit/537.36 (KHTML, like Gecko) Chrome/105.0.0.0 Safari/537.36" etag="9IB_FW5PXqX15SdTuRRV" version="20.4.0" type="github">
  <diagram id="p98N1Ffct7WQ6SjjHsSx" name="Page-1">
    <mxGraphModel dx="1422" dy="794" grid="1" gridSize="10" guides="1" tooltips="1" connect="1" arrows="1" fold="1" page="1" pageScale="1" pageWidth="850" pageHeight="1100" math="0" shadow="0">
      <root>
        <mxCell id="0" />
        <mxCell id="1" parent="0" />
        <mxCell id="43vT0w9vjVIoFtgKHFaU-127" style="edgeStyle=none;rounded=0;orthogonalLoop=1;jettySize=auto;html=1;exitX=0.5;exitY=1;exitDx=0;exitDy=0;entryX=0.5;entryY=0;entryDx=0;entryDy=0;fontSize=12;endArrow=none;endFill=0;" edge="1" parent="1" source="syvz-nuaud0FzRdMlBLG-1" target="43vT0w9vjVIoFtgKHFaU-119">
          <mxGeometry relative="1" as="geometry" />
        </mxCell>
        <mxCell id="syvz-nuaud0FzRdMlBLG-1" value="PLAYER" style="whiteSpace=wrap;html=1;align=center;" parent="1" vertex="1">
          <mxGeometry x="700" y="225" width="80" height="30" as="geometry" />
        </mxCell>
        <mxCell id="syvz-nuaud0FzRdMlBLG-4" value="&lt;div&gt;TEAM&lt;/div&gt;" style="whiteSpace=wrap;html=1;align=center;" parent="1" vertex="1">
          <mxGeometry x="385" y="150" width="80" height="30" as="geometry" />
        </mxCell>
        <mxCell id="43vT0w9vjVIoFtgKHFaU-94" style="edgeStyle=none;rounded=0;orthogonalLoop=1;jettySize=auto;html=1;exitX=0.25;exitY=1;exitDx=0;exitDy=0;entryX=0.5;entryY=0;entryDx=0;entryDy=0;fontSize=12;endArrow=none;endFill=0;" edge="1" parent="1" source="syvz-nuaud0FzRdMlBLG-6" target="43vT0w9vjVIoFtgKHFaU-93">
          <mxGeometry relative="1" as="geometry" />
        </mxCell>
        <mxCell id="syvz-nuaud0FzRdMlBLG-6" value="TOURNAMENT" style="whiteSpace=wrap;html=1;align=center;" parent="1" vertex="1">
          <mxGeometry x="150" y="350" width="100" height="40" as="geometry" />
        </mxCell>
        <mxCell id="syvz-nuaud0FzRdMlBLG-8" value="player_id" style="ellipse;whiteSpace=wrap;html=1;align=center;fontStyle=4;" parent="1" vertex="1">
          <mxGeometry x="730" y="175" width="65" height="30" as="geometry" />
        </mxCell>
        <mxCell id="43vT0w9vjVIoFtgKHFaU-112" style="edgeStyle=none;rounded=0;orthogonalLoop=1;jettySize=auto;html=1;exitX=0;exitY=1;exitDx=0;exitDy=0;entryX=1;entryY=0;entryDx=0;entryDy=0;fontSize=12;endArrow=none;endFill=0;" edge="1" parent="1" source="syvz-nuaud0FzRdMlBLG-9" target="43vT0w9vjVIoFtgKHFaU-110">
          <mxGeometry relative="1" as="geometry" />
        </mxCell>
        <mxCell id="43vT0w9vjVIoFtgKHFaU-113" style="edgeStyle=none;rounded=0;orthogonalLoop=1;jettySize=auto;html=1;exitX=0.5;exitY=1;exitDx=0;exitDy=0;entryX=0.5;entryY=0;entryDx=0;entryDy=0;fontSize=12;endArrow=none;endFill=0;" edge="1" parent="1" source="syvz-nuaud0FzRdMlBLG-9" target="43vT0w9vjVIoFtgKHFaU-111">
          <mxGeometry relative="1" as="geometry" />
        </mxCell>
        <mxCell id="syvz-nuaud0FzRdMlBLG-9" value="name" style="ellipse;whiteSpace=wrap;html=1;align=center;" parent="1" vertex="1">
          <mxGeometry x="790" y="255" width="50" height="20" as="geometry" />
        </mxCell>
        <mxCell id="syvz-nuaud0FzRdMlBLG-11" value="start_date" style="ellipse;whiteSpace=wrap;html=1;align=center;" parent="1" vertex="1">
          <mxGeometry x="70" y="320" width="80" height="20" as="geometry" />
        </mxCell>
        <mxCell id="syvz-nuaud0FzRdMlBLG-12" value="Member" style="shape=rhombus;perimeter=rhombusPerimeter;whiteSpace=wrap;html=1;align=center;" parent="1" vertex="1">
          <mxGeometry x="525" y="170" width="70" height="40" as="geometry" />
        </mxCell>
        <mxCell id="syvz-nuaud0FzRdMlBLG-13" value="num_members" style="ellipse;whiteSpace=wrap;html=1;align=center;dashed=1;" parent="1" vertex="1">
          <mxGeometry x="278" y="120" width="105" height="30" as="geometry" />
        </mxCell>
        <mxCell id="syvz-nuaud0FzRdMlBLG-15" value="Participates" style="shape=rhombus;perimeter=rhombusPerimeter;whiteSpace=wrap;html=1;align=center;" parent="1" vertex="1">
          <mxGeometry x="235" y="240" width="90" height="50" as="geometry" />
        </mxCell>
        <mxCell id="syvz-nuaud0FzRdMlBLG-17" value="kill_death_ratio" style="ellipse;whiteSpace=wrap;html=1;align=center;dashed=1;" parent="1" vertex="1">
          <mxGeometry x="612.5" y="170" width="105" height="30" as="geometry" />
        </mxCell>
        <mxCell id="43vT0w9vjVIoFtgKHFaU-75" style="edgeStyle=none;rounded=0;orthogonalLoop=1;jettySize=auto;html=1;exitX=0.5;exitY=1;exitDx=0;exitDy=0;fontSize=12;endArrow=none;endFill=0;entryX=1;entryY=0;entryDx=0;entryDy=0;" edge="1" parent="1" source="43vT0w9vjVIoFtgKHFaU-89" target="43vT0w9vjVIoFtgKHFaU-116">
          <mxGeometry relative="1" as="geometry">
            <mxPoint x="375" y="510" as="sourcePoint" />
            <mxPoint x="240" y="530" as="targetPoint" />
          </mxGeometry>
        </mxCell>
        <mxCell id="syvz-nuaud0FzRdMlBLG-24" value="" style="shape=link;html=1;rounded=0;labelBackgroundColor=default;strokeColor=default;fontFamily=Helvetica;fontSize=11;fontColor=default;endArrow=none;endFill=0;entryX=0;entryY=0.5;entryDx=0;entryDy=0;exitX=1;exitY=0.75;exitDx=0;exitDy=0;" parent="1" source="syvz-nuaud0FzRdMlBLG-4" target="syvz-nuaud0FzRdMlBLG-12" edge="1">
          <mxGeometry relative="1" as="geometry">
            <mxPoint x="95" y="400" as="sourcePoint" />
            <mxPoint x="255" y="400" as="targetPoint" />
          </mxGeometry>
        </mxCell>
        <mxCell id="syvz-nuaud0FzRdMlBLG-25" value="1" style="resizable=0;html=1;align=right;verticalAlign=bottom;fontFamily=Helvetica;fontSize=11;fontColor=default;" parent="syvz-nuaud0FzRdMlBLG-24" connectable="0" vertex="1">
          <mxGeometry x="1" relative="1" as="geometry">
            <mxPoint y="-10" as="offset" />
          </mxGeometry>
        </mxCell>
        <mxCell id="syvz-nuaud0FzRdMlBLG-26" value="" style="shape=link;html=1;rounded=0;labelBackgroundColor=default;strokeColor=default;fontFamily=Helvetica;fontSize=11;fontColor=default;endArrow=none;endFill=0;entryX=1;entryY=0.5;entryDx=0;entryDy=0;exitX=0;exitY=0.5;exitDx=0;exitDy=0;" parent="1" source="syvz-nuaud0FzRdMlBLG-1" target="syvz-nuaud0FzRdMlBLG-12" edge="1">
          <mxGeometry relative="1" as="geometry">
            <mxPoint x="605" y="580" as="sourcePoint" />
            <mxPoint x="765" y="580" as="targetPoint" />
          </mxGeometry>
        </mxCell>
        <mxCell id="syvz-nuaud0FzRdMlBLG-27" value="N" style="resizable=0;html=1;align=right;verticalAlign=bottom;fontFamily=Helvetica;fontSize=11;fontColor=default;" parent="syvz-nuaud0FzRdMlBLG-26" connectable="0" vertex="1">
          <mxGeometry x="1" relative="1" as="geometry" />
        </mxCell>
        <mxCell id="syvz-nuaud0FzRdMlBLG-28" style="edgeStyle=none;shape=connector;rounded=0;orthogonalLoop=1;jettySize=auto;html=1;exitX=1;exitY=0;exitDx=0;exitDy=0;labelBackgroundColor=default;strokeColor=default;fontFamily=Helvetica;fontSize=11;fontColor=default;endArrow=none;endFill=0;" parent="1" source="syvz-nuaud0FzRdMlBLG-4" target="syvz-nuaud0FzRdMlBLG-4" edge="1">
          <mxGeometry relative="1" as="geometry" />
        </mxCell>
        <mxCell id="syvz-nuaud0FzRdMlBLG-33" value="" style="shape=link;html=1;rounded=0;labelBackgroundColor=default;strokeColor=default;fontFamily=Helvetica;fontSize=11;fontColor=default;endArrow=none;endFill=0;entryX=1;entryY=0.5;entryDx=0;entryDy=0;exitX=0;exitY=0.5;exitDx=0;exitDy=0;" parent="1" source="syvz-nuaud0FzRdMlBLG-4" target="syvz-nuaud0FzRdMlBLG-15" edge="1">
          <mxGeometry relative="1" as="geometry">
            <mxPoint x="350" y="410" as="sourcePoint" />
            <mxPoint x="510" y="410" as="targetPoint" />
          </mxGeometry>
        </mxCell>
        <mxCell id="syvz-nuaud0FzRdMlBLG-34" value="N" style="resizable=0;html=1;align=right;verticalAlign=bottom;fontFamily=Helvetica;fontSize=11;fontColor=default;" parent="syvz-nuaud0FzRdMlBLG-33" connectable="0" vertex="1">
          <mxGeometry x="1" relative="1" as="geometry" />
        </mxCell>
        <mxCell id="syvz-nuaud0FzRdMlBLG-37" value="" style="endArrow=none;html=1;rounded=0;strokeColor=default;entryX=0.5;entryY=1;entryDx=0;entryDy=0;exitX=0.5;exitY=0;exitDx=0;exitDy=0;" parent="1" source="syvz-nuaud0FzRdMlBLG-1" target="syvz-nuaud0FzRdMlBLG-8" edge="1">
          <mxGeometry width="50" height="50" relative="1" as="geometry">
            <mxPoint x="700" y="320" as="sourcePoint" />
            <mxPoint x="750" y="270" as="targetPoint" />
          </mxGeometry>
        </mxCell>
        <mxCell id="syvz-nuaud0FzRdMlBLG-38" value="" style="endArrow=none;html=1;rounded=0;strokeColor=default;entryX=1;entryY=1;entryDx=0;entryDy=0;exitX=0.188;exitY=0;exitDx=0;exitDy=0;exitPerimeter=0;" parent="1" source="syvz-nuaud0FzRdMlBLG-4" target="syvz-nuaud0FzRdMlBLG-13" edge="1">
          <mxGeometry width="50" height="50" relative="1" as="geometry">
            <mxPoint x="340" y="100" as="sourcePoint" />
            <mxPoint x="390" y="50" as="targetPoint" />
          </mxGeometry>
        </mxCell>
        <mxCell id="syvz-nuaud0FzRdMlBLG-40" value="" style="endArrow=none;html=1;rounded=0;strokeColor=default;entryX=0;entryY=0;entryDx=0;entryDy=0;exitX=1;exitY=1;exitDx=0;exitDy=0;" parent="1" source="syvz-nuaud0FzRdMlBLG-1" target="syvz-nuaud0FzRdMlBLG-9" edge="1">
          <mxGeometry width="50" height="50" relative="1" as="geometry">
            <mxPoint x="700" y="320" as="sourcePoint" />
            <mxPoint x="750" y="270" as="targetPoint" />
          </mxGeometry>
        </mxCell>
        <mxCell id="syvz-nuaud0FzRdMlBLG-42" value="" style="endArrow=none;html=1;rounded=0;strokeColor=default;exitX=1;exitY=1;exitDx=0;exitDy=0;entryX=0;entryY=0;entryDx=0;entryDy=0;" parent="1" source="syvz-nuaud0FzRdMlBLG-11" target="syvz-nuaud0FzRdMlBLG-6" edge="1">
          <mxGeometry width="50" height="50" relative="1" as="geometry">
            <mxPoint x="195" y="312.5" as="sourcePoint" />
            <mxPoint x="180" y="380" as="targetPoint" />
          </mxGeometry>
        </mxCell>
        <mxCell id="syvz-nuaud0FzRdMlBLG-43" value="" style="shape=link;html=1;rounded=0;strokeColor=default;endArrow=none;endFill=0;exitX=0.5;exitY=0;exitDx=0;exitDy=0;entryX=0;entryY=0.5;entryDx=0;entryDy=0;" parent="1" source="syvz-nuaud0FzRdMlBLG-6" target="syvz-nuaud0FzRdMlBLG-15" edge="1">
          <mxGeometry relative="1" as="geometry">
            <mxPoint x="177.5" y="250" as="sourcePoint" />
            <mxPoint x="240" y="210" as="targetPoint" />
          </mxGeometry>
        </mxCell>
        <mxCell id="syvz-nuaud0FzRdMlBLG-44" value="M" style="resizable=0;html=1;align=right;verticalAlign=bottom;" parent="syvz-nuaud0FzRdMlBLG-43" connectable="0" vertex="1">
          <mxGeometry x="1" relative="1" as="geometry" />
        </mxCell>
        <mxCell id="syvz-nuaud0FzRdMlBLG-48" value="Plays" style="shape=rhombus;perimeter=rhombusPerimeter;whiteSpace=wrap;html=1;align=center;" parent="1" vertex="1">
          <mxGeometry x="345" y="290" width="60" height="40" as="geometry" />
        </mxCell>
        <mxCell id="syvz-nuaud0FzRdMlBLG-49" value="" style="endArrow=none;html=1;rounded=0;strokeColor=default;entryX=0.5;entryY=1;entryDx=0;entryDy=0;exitX=0;exitY=0;exitDx=0;exitDy=0;" parent="1" source="syvz-nuaud0FzRdMlBLG-1" target="syvz-nuaud0FzRdMlBLG-17" edge="1">
          <mxGeometry width="50" height="50" relative="1" as="geometry">
            <mxPoint x="390" y="260" as="sourcePoint" />
            <mxPoint x="440" y="210" as="targetPoint" />
          </mxGeometry>
        </mxCell>
        <mxCell id="syvz-nuaud0FzRdMlBLG-51" value="" style="shape=link;html=1;rounded=0;strokeColor=default;endArrow=none;endFill=0;exitX=0.5;exitY=1;exitDx=0;exitDy=0;entryX=0.5;entryY=0;entryDx=0;entryDy=0;" parent="1" source="syvz-nuaud0FzRdMlBLG-48" target="43vT0w9vjVIoFtgKHFaU-89" edge="1">
          <mxGeometry relative="1" as="geometry">
            <mxPoint x="410" y="340" as="sourcePoint" />
            <mxPoint x="375" y="480" as="targetPoint" />
          </mxGeometry>
        </mxCell>
        <mxCell id="syvz-nuaud0FzRdMlBLG-52" value="N" style="resizable=0;html=1;align=right;verticalAlign=bottom;" parent="syvz-nuaud0FzRdMlBLG-51" connectable="0" vertex="1">
          <mxGeometry x="1" relative="1" as="geometry">
            <mxPoint x="-5" y="-120" as="offset" />
          </mxGeometry>
        </mxCell>
        <mxCell id="syvz-nuaud0FzRdMlBLG-53" value="" style="endArrow=none;html=1;rounded=0;strokeColor=default;exitX=0.5;exitY=1;exitDx=0;exitDy=0;entryX=0.5;entryY=0;entryDx=0;entryDy=0;" parent="1" source="syvz-nuaud0FzRdMlBLG-4" target="syvz-nuaud0FzRdMlBLG-48" edge="1">
          <mxGeometry relative="1" as="geometry">
            <mxPoint x="330" y="240" as="sourcePoint" />
            <mxPoint x="490" y="240" as="targetPoint" />
          </mxGeometry>
        </mxCell>
        <mxCell id="syvz-nuaud0FzRdMlBLG-54" value="M" style="resizable=0;html=1;align=right;verticalAlign=bottom;" parent="syvz-nuaud0FzRdMlBLG-53" connectable="0" vertex="1">
          <mxGeometry x="1" relative="1" as="geometry">
            <mxPoint x="-5" as="offset" />
          </mxGeometry>
        </mxCell>
        <mxCell id="syvz-nuaud0FzRdMlBLG-56" value="Participates" style="shape=rhombus;perimeter=rhombusPerimeter;whiteSpace=wrap;html=1;align=center;" parent="1" vertex="1">
          <mxGeometry x="590" y="400" width="92.5" height="40" as="geometry" />
        </mxCell>
        <mxCell id="syvz-nuaud0FzRdMlBLG-58" value="" style="endArrow=none;html=1;rounded=0;strokeColor=default;exitX=0;exitY=1;exitDx=0;exitDy=0;entryX=1;entryY=0.5;entryDx=0;entryDy=0;" parent="1" source="syvz-nuaud0FzRdMlBLG-1" target="syvz-nuaud0FzRdMlBLG-56" edge="1">
          <mxGeometry relative="1" as="geometry">
            <mxPoint x="330" y="240" as="sourcePoint" />
            <mxPoint x="490" y="240" as="targetPoint" />
          </mxGeometry>
        </mxCell>
        <mxCell id="syvz-nuaud0FzRdMlBLG-59" value="N" style="resizable=0;html=1;align=right;verticalAlign=bottom;" parent="syvz-nuaud0FzRdMlBLG-58" connectable="0" vertex="1">
          <mxGeometry x="1" relative="1" as="geometry" />
        </mxCell>
        <mxCell id="syvz-nuaud0FzRdMlBLG-60" value="" style="shape=link;html=1;rounded=0;strokeColor=default;endArrow=none;endFill=0;exitX=1;exitY=0.5;exitDx=0;exitDy=0;entryX=0;entryY=0.5;entryDx=0;entryDy=0;" parent="1" source="43vT0w9vjVIoFtgKHFaU-89" target="syvz-nuaud0FzRdMlBLG-56" edge="1">
          <mxGeometry relative="1" as="geometry">
            <mxPoint x="417.5" y="495" as="sourcePoint" />
            <mxPoint x="490" y="240" as="targetPoint" />
          </mxGeometry>
        </mxCell>
        <mxCell id="syvz-nuaud0FzRdMlBLG-61" value="M" style="resizable=0;html=1;align=right;verticalAlign=bottom;" parent="syvz-nuaud0FzRdMlBLG-60" connectable="0" vertex="1">
          <mxGeometry x="1" relative="1" as="geometry" />
        </mxCell>
        <mxCell id="syvz-nuaud0FzRdMlBLG-62" value="&lt;div&gt;kills&lt;/div&gt;" style="ellipse;whiteSpace=wrap;html=1;align=center;" parent="1" vertex="1">
          <mxGeometry x="667.5" y="450" width="40" height="20" as="geometry" />
        </mxCell>
        <mxCell id="syvz-nuaud0FzRdMlBLG-63" value="deaths" style="ellipse;whiteSpace=wrap;html=1;align=center;" parent="1" vertex="1">
          <mxGeometry x="612.5" y="460" width="55" height="20" as="geometry" />
        </mxCell>
        <mxCell id="syvz-nuaud0FzRdMlBLG-64" value="" style="endArrow=none;html=1;rounded=0;strokeColor=default;entryX=0.5;entryY=1;entryDx=0;entryDy=0;exitX=0.5;exitY=0;exitDx=0;exitDy=0;" parent="1" source="syvz-nuaud0FzRdMlBLG-63" target="syvz-nuaud0FzRdMlBLG-56" edge="1">
          <mxGeometry width="50" height="50" relative="1" as="geometry">
            <mxPoint x="550" y="520" as="sourcePoint" />
            <mxPoint x="600" y="470" as="targetPoint" />
          </mxGeometry>
        </mxCell>
        <mxCell id="syvz-nuaud0FzRdMlBLG-65" value="" style="endArrow=none;html=1;rounded=0;strokeColor=default;entryX=1;entryY=1;entryDx=0;entryDy=0;exitX=0.5;exitY=0;exitDx=0;exitDy=0;" parent="1" source="syvz-nuaud0FzRdMlBLG-62" target="syvz-nuaud0FzRdMlBLG-56" edge="1">
          <mxGeometry width="50" height="50" relative="1" as="geometry">
            <mxPoint x="425" y="330" as="sourcePoint" />
            <mxPoint x="475" y="280" as="targetPoint" />
          </mxGeometry>
        </mxCell>
        <mxCell id="syvz-nuaud0FzRdMlBLG-67" value="" style="endArrow=none;html=1;rounded=0;strokeColor=default;entryX=0.5;entryY=1;entryDx=0;entryDy=0;exitX=0.5;exitY=0;exitDx=0;exitDy=0;" parent="1" source="syvz-nuaud0FzRdMlBLG-4" target="43vT0w9vjVIoFtgKHFaU-91" edge="1">
          <mxGeometry width="50" height="50" relative="1" as="geometry">
            <mxPoint x="390" y="260" as="sourcePoint" />
            <mxPoint x="352.5" y="110" as="targetPoint" />
          </mxGeometry>
        </mxCell>
        <mxCell id="43vT0w9vjVIoFtgKHFaU-77" style="edgeStyle=none;rounded=0;orthogonalLoop=1;jettySize=auto;html=1;exitX=0.75;exitY=1;exitDx=0;exitDy=0;entryX=0.5;entryY=0;entryDx=0;entryDy=0;fontSize=12;endArrow=none;endFill=0;" edge="1" parent="1" source="43vT0w9vjVIoFtgKHFaU-85" target="43vT0w9vjVIoFtgKHFaU-117">
          <mxGeometry relative="1" as="geometry">
            <mxPoint x="545" y="330" as="sourcePoint" />
            <mxPoint x="548.125" y="350" as="targetPoint" />
          </mxGeometry>
        </mxCell>
        <mxCell id="43vT0w9vjVIoFtgKHFaU-79" style="edgeStyle=none;rounded=0;orthogonalLoop=1;jettySize=auto;html=1;exitX=1;exitY=0.5;exitDx=0;exitDy=0;entryX=0;entryY=0.5;entryDx=0;entryDy=0;fontSize=12;endArrow=none;endFill=0;" edge="1" parent="1" source="43vT0w9vjVIoFtgKHFaU-85" target="43vT0w9vjVIoFtgKHFaU-78">
          <mxGeometry relative="1" as="geometry">
            <mxPoint x="580" y="316.25" as="sourcePoint" />
          </mxGeometry>
        </mxCell>
        <mxCell id="43vT0w9vjVIoFtgKHFaU-3" value="Result" style="ellipse;whiteSpace=wrap;html=1;align=center;" vertex="1" parent="1">
          <mxGeometry x="400" y="270" width="50" height="20" as="geometry" />
        </mxCell>
        <mxCell id="43vT0w9vjVIoFtgKHFaU-4" value="" style="endArrow=none;html=1;rounded=0;entryX=0;entryY=1;entryDx=0;entryDy=0;exitX=1;exitY=0;exitDx=0;exitDy=0;" edge="1" parent="1" source="syvz-nuaud0FzRdMlBLG-48" target="43vT0w9vjVIoFtgKHFaU-3">
          <mxGeometry relative="1" as="geometry">
            <mxPoint x="340" y="410" as="sourcePoint" />
            <mxPoint x="500" y="410" as="targetPoint" />
          </mxGeometry>
        </mxCell>
        <mxCell id="43vT0w9vjVIoFtgKHFaU-5" value="Participates" style="shape=rhombus;perimeter=rhombusPerimeter;whiteSpace=wrap;html=1;align=center;" vertex="1" parent="1">
          <mxGeometry x="430" y="360" width="80" height="50" as="geometry" />
        </mxCell>
        <mxCell id="43vT0w9vjVIoFtgKHFaU-9" value="" style="shape=link;html=1;rounded=0;fontSize=12;exitX=0.5;exitY=0;exitDx=0;exitDy=0;entryX=0.5;entryY=1;entryDx=0;entryDy=0;" edge="1" parent="1" source="43vT0w9vjVIoFtgKHFaU-85" target="43vT0w9vjVIoFtgKHFaU-86">
          <mxGeometry relative="1" as="geometry">
            <mxPoint x="340" y="410" as="sourcePoint" />
            <mxPoint x="460" y="290" as="targetPoint" />
          </mxGeometry>
        </mxCell>
        <mxCell id="43vT0w9vjVIoFtgKHFaU-10" value="N" style="resizable=0;html=1;align=right;verticalAlign=bottom;fontSize=12;" connectable="0" vertex="1" parent="43vT0w9vjVIoFtgKHFaU-9">
          <mxGeometry x="1" relative="1" as="geometry">
            <mxPoint y="18" as="offset" />
          </mxGeometry>
        </mxCell>
        <mxCell id="43vT0w9vjVIoFtgKHFaU-11" value="" style="shape=link;html=1;rounded=0;fontSize=12;exitX=0.5;exitY=1;exitDx=0;exitDy=0;entryX=0.5;entryY=0;entryDx=0;entryDy=0;" edge="1" parent="1" source="syvz-nuaud0FzRdMlBLG-4" target="43vT0w9vjVIoFtgKHFaU-86">
          <mxGeometry relative="1" as="geometry">
            <mxPoint x="545" y="302.5" as="sourcePoint" />
            <mxPoint x="460" y="300" as="targetPoint" />
          </mxGeometry>
        </mxCell>
        <mxCell id="43vT0w9vjVIoFtgKHFaU-12" value="1" style="resizable=0;html=1;align=right;verticalAlign=bottom;fontSize=12;" connectable="0" vertex="1" parent="43vT0w9vjVIoFtgKHFaU-11">
          <mxGeometry x="1" relative="1" as="geometry">
            <mxPoint x="-10" y="10" as="offset" />
          </mxGeometry>
        </mxCell>
        <mxCell id="43vT0w9vjVIoFtgKHFaU-13" value="Has" style="shape=rhombus;perimeter=rhombusPerimeter;whiteSpace=wrap;html=1;align=center;fontSize=12;" vertex="1" parent="1">
          <mxGeometry x="616.25" y="267.5" width="47.5" height="35" as="geometry" />
        </mxCell>
        <mxCell id="43vT0w9vjVIoFtgKHFaU-16" value="" style="endArrow=none;html=1;rounded=0;fontSize=12;entryX=1;entryY=0.5;entryDx=0;entryDy=0;exitX=0;exitY=0.75;exitDx=0;exitDy=0;" edge="1" parent="1" source="syvz-nuaud0FzRdMlBLG-1" target="43vT0w9vjVIoFtgKHFaU-13">
          <mxGeometry relative="1" as="geometry">
            <mxPoint x="480" y="350" as="sourcePoint" />
            <mxPoint x="640" y="350" as="targetPoint" />
          </mxGeometry>
        </mxCell>
        <mxCell id="43vT0w9vjVIoFtgKHFaU-17" value="M" style="resizable=0;html=1;align=right;verticalAlign=bottom;fontSize=12;" connectable="0" vertex="1" parent="43vT0w9vjVIoFtgKHFaU-16">
          <mxGeometry x="1" relative="1" as="geometry" />
        </mxCell>
        <mxCell id="43vT0w9vjVIoFtgKHFaU-18" value="" style="shape=link;html=1;rounded=0;fontSize=12;entryX=0;entryY=0.5;entryDx=0;entryDy=0;exitX=1;exitY=0.25;exitDx=0;exitDy=0;" edge="1" parent="1" source="43vT0w9vjVIoFtgKHFaU-85" target="43vT0w9vjVIoFtgKHFaU-13">
          <mxGeometry relative="1" as="geometry">
            <mxPoint x="580" y="309.375" as="sourcePoint" />
            <mxPoint x="500" y="410" as="targetPoint" />
          </mxGeometry>
        </mxCell>
        <mxCell id="43vT0w9vjVIoFtgKHFaU-19" value="N" style="resizable=0;html=1;align=right;verticalAlign=bottom;fontSize=12;" connectable="0" vertex="1" parent="43vT0w9vjVIoFtgKHFaU-18">
          <mxGeometry x="1" relative="1" as="geometry" />
        </mxCell>
        <mxCell id="43vT0w9vjVIoFtgKHFaU-21" value="" style="shape=link;html=1;rounded=0;fontSize=12;entryX=0.5;entryY=0;entryDx=0;entryDy=0;exitX=0.5;exitY=1;exitDx=0;exitDy=0;" edge="1" parent="1" source="43vT0w9vjVIoFtgKHFaU-85" target="43vT0w9vjVIoFtgKHFaU-5">
          <mxGeometry relative="1" as="geometry">
            <mxPoint x="545" y="330" as="sourcePoint" />
            <mxPoint x="500" y="410" as="targetPoint" />
          </mxGeometry>
        </mxCell>
        <mxCell id="43vT0w9vjVIoFtgKHFaU-22" value="N" style="resizable=0;html=1;align=right;verticalAlign=bottom;fontSize=12;" connectable="0" vertex="1" parent="43vT0w9vjVIoFtgKHFaU-21">
          <mxGeometry x="1" relative="1" as="geometry" />
        </mxCell>
        <mxCell id="43vT0w9vjVIoFtgKHFaU-23" value="" style="shape=link;html=1;rounded=0;fontSize=12;exitX=0.5;exitY=0;exitDx=0;exitDy=0;entryX=0.5;entryY=1;entryDx=0;entryDy=0;" edge="1" parent="1" source="43vT0w9vjVIoFtgKHFaU-89" target="43vT0w9vjVIoFtgKHFaU-5">
          <mxGeometry relative="1" as="geometry">
            <mxPoint x="375" y="480" as="sourcePoint" />
            <mxPoint x="470" y="410" as="targetPoint" />
          </mxGeometry>
        </mxCell>
        <mxCell id="43vT0w9vjVIoFtgKHFaU-24" value="M" style="resizable=0;html=1;align=right;verticalAlign=bottom;fontSize=12;" connectable="0" vertex="1" parent="43vT0w9vjVIoFtgKHFaU-23">
          <mxGeometry x="1" relative="1" as="geometry">
            <mxPoint x="-10" y="10" as="offset" />
          </mxGeometry>
        </mxCell>
        <mxCell id="43vT0w9vjVIoFtgKHFaU-26" value="game_win_rate" style="ellipse;whiteSpace=wrap;html=1;align=center;dashed=1;fontSize=12;" vertex="1" parent="1">
          <mxGeometry x="340" y="50" width="110" height="30" as="geometry" />
        </mxCell>
        <mxCell id="43vT0w9vjVIoFtgKHFaU-27" value="" style="endArrow=none;html=1;rounded=0;fontSize=12;entryX=0.5;entryY=1;entryDx=0;entryDy=0;exitX=0.5;exitY=0;exitDx=0;exitDy=0;" edge="1" parent="1" source="syvz-nuaud0FzRdMlBLG-4" target="43vT0w9vjVIoFtgKHFaU-26">
          <mxGeometry relative="1" as="geometry">
            <mxPoint x="340" y="410" as="sourcePoint" />
            <mxPoint x="500" y="410" as="targetPoint" />
          </mxGeometry>
        </mxCell>
        <mxCell id="43vT0w9vjVIoFtgKHFaU-32" value="Captain" style="shape=rhombus;perimeter=rhombusPerimeter;whiteSpace=wrap;html=1;align=center;fontSize=12;" vertex="1" parent="1">
          <mxGeometry x="560" y="205" width="70" height="40" as="geometry" />
        </mxCell>
        <mxCell id="43vT0w9vjVIoFtgKHFaU-34" value="" style="endArrow=none;html=1;rounded=0;fontSize=12;entryX=1;entryY=0.5;entryDx=0;entryDy=0;" edge="1" parent="1" target="43vT0w9vjVIoFtgKHFaU-32">
          <mxGeometry relative="1" as="geometry">
            <mxPoint x="700" y="250" as="sourcePoint" />
            <mxPoint x="500" y="460" as="targetPoint" />
          </mxGeometry>
        </mxCell>
        <mxCell id="43vT0w9vjVIoFtgKHFaU-35" value="1" style="resizable=0;html=1;align=right;verticalAlign=bottom;fontSize=12;" connectable="0" vertex="1" parent="43vT0w9vjVIoFtgKHFaU-34">
          <mxGeometry x="1" relative="1" as="geometry">
            <mxPoint x="5" y="20" as="offset" />
          </mxGeometry>
        </mxCell>
        <mxCell id="43vT0w9vjVIoFtgKHFaU-36" value="" style="shape=link;html=1;rounded=0;fontSize=12;entryX=0;entryY=0.5;entryDx=0;entryDy=0;exitX=1;exitY=1;exitDx=0;exitDy=0;" edge="1" parent="1" source="syvz-nuaud0FzRdMlBLG-4" target="43vT0w9vjVIoFtgKHFaU-32">
          <mxGeometry relative="1" as="geometry">
            <mxPoint x="340" y="460" as="sourcePoint" />
            <mxPoint x="500" y="460" as="targetPoint" />
          </mxGeometry>
        </mxCell>
        <mxCell id="43vT0w9vjVIoFtgKHFaU-37" value="1" style="resizable=0;html=1;align=right;verticalAlign=bottom;fontSize=12;" connectable="0" vertex="1" parent="43vT0w9vjVIoFtgKHFaU-36">
          <mxGeometry x="1" relative="1" as="geometry" />
        </mxCell>
        <mxCell id="43vT0w9vjVIoFtgKHFaU-39" value="sponsors" style="ellipse;shape=doubleEllipse;margin=3;whiteSpace=wrap;html=1;align=center;fontSize=12;" vertex="1" parent="1">
          <mxGeometry x="415" y="80" width="70" height="30" as="geometry" />
        </mxCell>
        <mxCell id="43vT0w9vjVIoFtgKHFaU-42" style="rounded=0;orthogonalLoop=1;jettySize=auto;html=1;exitX=0.5;exitY=1;exitDx=0;exitDy=0;entryX=0;entryY=0;entryDx=0;entryDy=0;fontSize=12;endArrow=none;endFill=0;" edge="1" parent="1" source="43vT0w9vjVIoFtgKHFaU-40" target="syvz-nuaud0FzRdMlBLG-15">
          <mxGeometry relative="1" as="geometry" />
        </mxCell>
        <mxCell id="43vT0w9vjVIoFtgKHFaU-40" value="Result" style="ellipse;whiteSpace=wrap;html=1;align=center;" vertex="1" parent="1">
          <mxGeometry x="200" y="215" width="50" height="20" as="geometry" />
        </mxCell>
        <mxCell id="43vT0w9vjVIoFtgKHFaU-41" value="" style="endArrow=none;html=1;rounded=0;fontSize=12;entryX=0.5;entryY=1;entryDx=0;entryDy=0;exitX=0.5;exitY=0;exitDx=0;exitDy=0;" edge="1" parent="1" source="syvz-nuaud0FzRdMlBLG-4" target="43vT0w9vjVIoFtgKHFaU-39">
          <mxGeometry relative="1" as="geometry">
            <mxPoint x="340" y="360" as="sourcePoint" />
            <mxPoint x="500" y="360" as="targetPoint" />
          </mxGeometry>
        </mxCell>
        <mxCell id="43vT0w9vjVIoFtgKHFaU-46" style="edgeStyle=none;rounded=0;orthogonalLoop=1;jettySize=auto;html=1;exitX=0.5;exitY=1;exitDx=0;exitDy=0;entryX=0.25;entryY=0;entryDx=0;entryDy=0;fontSize=12;endArrow=none;endFill=0;" edge="1" parent="1" source="43vT0w9vjVIoFtgKHFaU-45" target="syvz-nuaud0FzRdMlBLG-6">
          <mxGeometry relative="1" as="geometry" />
        </mxCell>
        <mxCell id="43vT0w9vjVIoFtgKHFaU-45" value="tournament_id" style="ellipse;whiteSpace=wrap;html=1;align=center;fontStyle=4;fontSize=12;" vertex="1" parent="1">
          <mxGeometry x="110" y="290" width="100" height="25" as="geometry" />
        </mxCell>
        <mxCell id="43vT0w9vjVIoFtgKHFaU-48" style="edgeStyle=none;rounded=0;orthogonalLoop=1;jettySize=auto;html=1;exitX=1;exitY=0.5;exitDx=0;exitDy=0;entryX=0;entryY=0.75;entryDx=0;entryDy=0;fontSize=12;endArrow=none;endFill=0;" edge="1" parent="1" source="43vT0w9vjVIoFtgKHFaU-47" target="syvz-nuaud0FzRdMlBLG-6">
          <mxGeometry relative="1" as="geometry" />
        </mxCell>
        <mxCell id="43vT0w9vjVIoFtgKHFaU-47" value="location" style="ellipse;whiteSpace=wrap;html=1;align=center;fontSize=12;" vertex="1" parent="1">
          <mxGeometry x="70" y="380" width="60" height="20" as="geometry" />
        </mxCell>
        <mxCell id="43vT0w9vjVIoFtgKHFaU-54" style="edgeStyle=none;rounded=0;orthogonalLoop=1;jettySize=auto;html=1;exitX=1;exitY=1;exitDx=0;exitDy=0;entryX=0;entryY=0;entryDx=0;entryDy=0;fontSize=12;endArrow=none;endFill=0;" edge="1" parent="1" source="43vT0w9vjVIoFtgKHFaU-49" target="syvz-nuaud0FzRdMlBLG-11">
          <mxGeometry relative="1" as="geometry" />
        </mxCell>
        <mxCell id="43vT0w9vjVIoFtgKHFaU-49" value="day" style="ellipse;whiteSpace=wrap;html=1;align=center;fontSize=12;" vertex="1" parent="1">
          <mxGeometry x="40" y="300" width="30" height="20" as="geometry" />
        </mxCell>
        <mxCell id="43vT0w9vjVIoFtgKHFaU-53" style="edgeStyle=none;rounded=0;orthogonalLoop=1;jettySize=auto;html=1;exitX=0.5;exitY=1;exitDx=0;exitDy=0;fontSize=12;endArrow=none;endFill=0;entryX=0;entryY=0;entryDx=0;entryDy=0;" edge="1" parent="1" source="43vT0w9vjVIoFtgKHFaU-50" target="syvz-nuaud0FzRdMlBLG-11">
          <mxGeometry relative="1" as="geometry">
            <mxPoint x="90" y="320" as="targetPoint" />
          </mxGeometry>
        </mxCell>
        <mxCell id="43vT0w9vjVIoFtgKHFaU-50" value="month&lt;span style=&quot;color: rgba(0, 0, 0, 0); font-family: monospace; font-size: 0px; text-align: start;&quot;&gt;%3CmxGraphModel%3E%3Croot%3E%3CmxCell%20id%3D%220%22%2F%3E%3CmxCell%20id%3D%221%22%20parent%3D%220%22%2F%3E%3CmxCell%20id%3D%222%22%20value%3D%22Result%22%20style%3D%22ellipse%3BwhiteSpace%3Dwrap%3Bhtml%3D1%3Balign%3Dcenter%3B%22%20vertex%3D%221%22%20parent%3D%221%22%3E%3CmxGeometry%20x%3D%22400%22%20y%3D%22270%22%20width%3D%2250%22%20height%3D%2220%22%20as%3D%22geometry%22%2F%3E%3C%2FmxCell%3E%3C%2Froot%3E%3C%2FmxGraphModel%3E&lt;/span&gt;" style="ellipse;whiteSpace=wrap;html=1;align=center;" vertex="1" parent="1">
          <mxGeometry x="35" y="270" width="50" height="20" as="geometry" />
        </mxCell>
        <mxCell id="43vT0w9vjVIoFtgKHFaU-52" style="edgeStyle=none;rounded=0;orthogonalLoop=1;jettySize=auto;html=1;exitX=0.5;exitY=1;exitDx=0;exitDy=0;entryX=0;entryY=0;entryDx=0;entryDy=0;fontSize=12;endArrow=none;endFill=0;" edge="1" parent="1" source="43vT0w9vjVIoFtgKHFaU-51" target="syvz-nuaud0FzRdMlBLG-11">
          <mxGeometry relative="1" as="geometry" />
        </mxCell>
        <mxCell id="43vT0w9vjVIoFtgKHFaU-51" value="year" style="ellipse;whiteSpace=wrap;html=1;align=center;" vertex="1" parent="1">
          <mxGeometry x="80" y="255" width="40" height="20" as="geometry" />
        </mxCell>
        <mxCell id="43vT0w9vjVIoFtgKHFaU-58" style="edgeStyle=none;rounded=0;orthogonalLoop=1;jettySize=auto;html=1;exitX=1;exitY=1;exitDx=0;exitDy=0;entryX=0.5;entryY=0;entryDx=0;entryDy=0;fontSize=12;endArrow=none;endFill=0;" edge="1" parent="1" source="43vT0w9vjVIoFtgKHFaU-55" target="43vT0w9vjVIoFtgKHFaU-47">
          <mxGeometry relative="1" as="geometry" />
        </mxCell>
        <mxCell id="43vT0w9vjVIoFtgKHFaU-55" value="street_address" style="ellipse;whiteSpace=wrap;html=1;align=center;fontSize=12;" vertex="1" parent="1">
          <mxGeometry y="350" width="100" height="20" as="geometry" />
        </mxCell>
        <mxCell id="43vT0w9vjVIoFtgKHFaU-59" style="edgeStyle=none;rounded=0;orthogonalLoop=1;jettySize=auto;html=1;exitX=1;exitY=0.5;exitDx=0;exitDy=0;entryX=0;entryY=0.5;entryDx=0;entryDy=0;fontSize=12;endArrow=none;endFill=0;" edge="1" parent="1" source="43vT0w9vjVIoFtgKHFaU-56" target="43vT0w9vjVIoFtgKHFaU-47">
          <mxGeometry relative="1" as="geometry" />
        </mxCell>
        <mxCell id="43vT0w9vjVIoFtgKHFaU-56" value="city" style="ellipse;whiteSpace=wrap;html=1;align=center;fontSize=12;" vertex="1" parent="1">
          <mxGeometry x="20" y="380" width="30" height="20" as="geometry" />
        </mxCell>
        <mxCell id="43vT0w9vjVIoFtgKHFaU-60" style="edgeStyle=none;rounded=0;orthogonalLoop=1;jettySize=auto;html=1;exitX=1;exitY=0;exitDx=0;exitDy=0;entryX=0;entryY=1;entryDx=0;entryDy=0;fontSize=12;endArrow=none;endFill=0;" edge="1" parent="1" source="43vT0w9vjVIoFtgKHFaU-57" target="43vT0w9vjVIoFtgKHFaU-47">
          <mxGeometry relative="1" as="geometry" />
        </mxCell>
        <mxCell id="43vT0w9vjVIoFtgKHFaU-57" value="state" style="ellipse;whiteSpace=wrap;html=1;align=center;fontSize=12;" vertex="1" parent="1">
          <mxGeometry x="40" y="400" width="40" height="20" as="geometry" />
        </mxCell>
        <mxCell id="43vT0w9vjVIoFtgKHFaU-69" value="" style="shape=link;html=1;rounded=0;fontSize=12;endArrow=none;endFill=0;entryX=1;entryY=0.5;entryDx=0;entryDy=0;exitX=0;exitY=0.5;exitDx=0;exitDy=0;" edge="1" parent="1" source="43vT0w9vjVIoFtgKHFaU-89" target="43vT0w9vjVIoFtgKHFaU-88">
          <mxGeometry relative="1" as="geometry">
            <mxPoint x="332.5" y="495" as="sourcePoint" />
            <mxPoint x="500" y="360" as="targetPoint" />
          </mxGeometry>
        </mxCell>
        <mxCell id="43vT0w9vjVIoFtgKHFaU-70" value="N" style="resizable=0;html=1;align=right;verticalAlign=bottom;fontSize=12;" connectable="0" vertex="1" parent="43vT0w9vjVIoFtgKHFaU-69">
          <mxGeometry x="1" relative="1" as="geometry" />
        </mxCell>
        <mxCell id="43vT0w9vjVIoFtgKHFaU-71" value="" style="shape=link;html=1;rounded=0;fontSize=12;endArrow=none;endFill=0;entryX=0;entryY=0.5;entryDx=0;entryDy=0;exitX=0.5;exitY=1;exitDx=0;exitDy=0;" edge="1" parent="1" source="syvz-nuaud0FzRdMlBLG-6" target="43vT0w9vjVIoFtgKHFaU-88">
          <mxGeometry relative="1" as="geometry">
            <mxPoint x="340" y="360" as="sourcePoint" />
            <mxPoint x="500" y="360" as="targetPoint" />
          </mxGeometry>
        </mxCell>
        <mxCell id="43vT0w9vjVIoFtgKHFaU-72" value="1" style="resizable=0;html=1;align=right;verticalAlign=bottom;fontSize=12;" connectable="0" vertex="1" parent="43vT0w9vjVIoFtgKHFaU-71">
          <mxGeometry x="1" relative="1" as="geometry">
            <mxPoint x="-10" as="offset" />
          </mxGeometry>
        </mxCell>
        <mxCell id="43vT0w9vjVIoFtgKHFaU-83" style="edgeStyle=none;rounded=0;orthogonalLoop=1;jettySize=auto;html=1;exitX=0;exitY=1;exitDx=0;exitDy=0;entryX=0.5;entryY=0;entryDx=0;entryDy=0;fontSize=12;endArrow=none;endFill=0;" edge="1" parent="1" source="43vT0w9vjVIoFtgKHFaU-78" target="43vT0w9vjVIoFtgKHFaU-80">
          <mxGeometry relative="1" as="geometry" />
        </mxCell>
        <mxCell id="43vT0w9vjVIoFtgKHFaU-84" style="edgeStyle=none;rounded=0;orthogonalLoop=1;jettySize=auto;html=1;exitX=1;exitY=1;exitDx=0;exitDy=0;entryX=0.5;entryY=0;entryDx=0;entryDy=0;fontSize=12;endArrow=none;endFill=0;" edge="1" parent="1" source="43vT0w9vjVIoFtgKHFaU-78" target="43vT0w9vjVIoFtgKHFaU-82">
          <mxGeometry relative="1" as="geometry" />
        </mxCell>
        <mxCell id="43vT0w9vjVIoFtgKHFaU-78" value="creation_date" style="ellipse;whiteSpace=wrap;html=1;align=center;fontSize=12;" vertex="1" parent="1">
          <mxGeometry x="590" y="310" width="90" height="20" as="geometry" />
        </mxCell>
        <mxCell id="43vT0w9vjVIoFtgKHFaU-80" value="month" style="ellipse;whiteSpace=wrap;html=1;align=center;fontSize=12;" vertex="1" parent="1">
          <mxGeometry x="580" y="340" width="53.75" height="20" as="geometry" />
        </mxCell>
        <mxCell id="43vT0w9vjVIoFtgKHFaU-82" value="year" style="ellipse;whiteSpace=wrap;html=1;align=center;" vertex="1" parent="1">
          <mxGeometry x="640" y="340" width="40" height="20" as="geometry" />
        </mxCell>
        <mxCell id="43vT0w9vjVIoFtgKHFaU-85" value="ROSTER" style="shape=ext;margin=3;double=1;whiteSpace=wrap;html=1;align=center;fontSize=12;" vertex="1" parent="1">
          <mxGeometry x="480" y="300" width="80" height="30" as="geometry" />
        </mxCell>
        <mxCell id="43vT0w9vjVIoFtgKHFaU-86" value="Has" style="shape=rhombus;double=1;perimeter=rhombusPerimeter;whiteSpace=wrap;html=1;align=center;fontSize=12;" vertex="1" parent="1">
          <mxGeometry x="450" y="227.5" width="60" height="40" as="geometry" />
        </mxCell>
        <mxCell id="43vT0w9vjVIoFtgKHFaU-88" value="Has" style="shape=rhombus;double=1;perimeter=rhombusPerimeter;whiteSpace=wrap;html=1;align=center;fontSize=12;" vertex="1" parent="1">
          <mxGeometry x="200" y="465" width="60" height="35" as="geometry" />
        </mxCell>
        <mxCell id="43vT0w9vjVIoFtgKHFaU-103" style="edgeStyle=none;rounded=0;orthogonalLoop=1;jettySize=auto;html=1;exitX=0.5;exitY=1;exitDx=0;exitDy=0;entryX=0.5;entryY=0;entryDx=0;entryDy=0;fontSize=12;endArrow=none;endFill=0;" edge="1" parent="1" source="43vT0w9vjVIoFtgKHFaU-89" target="43vT0w9vjVIoFtgKHFaU-96">
          <mxGeometry relative="1" as="geometry" />
        </mxCell>
        <mxCell id="43vT0w9vjVIoFtgKHFaU-106" style="edgeStyle=none;rounded=0;orthogonalLoop=1;jettySize=auto;html=1;exitX=0.5;exitY=1;exitDx=0;exitDy=0;entryX=0.5;entryY=0;entryDx=0;entryDy=0;fontSize=12;endArrow=none;endFill=0;" edge="1" parent="1" source="43vT0w9vjVIoFtgKHFaU-89" target="43vT0w9vjVIoFtgKHFaU-105">
          <mxGeometry relative="1" as="geometry" />
        </mxCell>
        <mxCell id="43vT0w9vjVIoFtgKHFaU-109" style="edgeStyle=none;rounded=0;orthogonalLoop=1;jettySize=auto;html=1;exitX=1;exitY=1;exitDx=0;exitDy=0;entryX=0;entryY=0.5;entryDx=0;entryDy=0;fontSize=12;endArrow=none;endFill=0;" edge="1" parent="1" source="43vT0w9vjVIoFtgKHFaU-89" target="43vT0w9vjVIoFtgKHFaU-108">
          <mxGeometry relative="1" as="geometry" />
        </mxCell>
        <mxCell id="43vT0w9vjVIoFtgKHFaU-89" value="GAME" style="shape=ext;margin=3;double=1;whiteSpace=wrap;html=1;align=center;fontSize=12;" vertex="1" parent="1">
          <mxGeometry x="335" y="460" width="80" height="40" as="geometry" />
        </mxCell>
        <mxCell id="43vT0w9vjVIoFtgKHFaU-91" value="team_name" style="ellipse;whiteSpace=wrap;html=1;align=center;fontStyle=4;fontSize=12;" vertex="1" parent="1">
          <mxGeometry x="295" y="85" width="90" height="20" as="geometry" />
        </mxCell>
        <mxCell id="43vT0w9vjVIoFtgKHFaU-93" value="name" style="ellipse;whiteSpace=wrap;html=1;align=center;fontSize=12;" vertex="1" parent="1">
          <mxGeometry x="120" y="410" width="40" height="20" as="geometry" />
        </mxCell>
        <mxCell id="43vT0w9vjVIoFtgKHFaU-96" value="date" style="ellipse;whiteSpace=wrap;html=1;align=center;" vertex="1" parent="1">
          <mxGeometry x="360" y="530" width="35" height="20" as="geometry" />
        </mxCell>
        <mxCell id="43vT0w9vjVIoFtgKHFaU-97" style="edgeStyle=none;rounded=0;orthogonalLoop=1;jettySize=auto;html=1;exitX=0.5;exitY=0;exitDx=0;exitDy=0;entryX=0.5;entryY=1;entryDx=0;entryDy=0;fontSize=12;endArrow=none;endFill=0;" edge="1" parent="1" source="43vT0w9vjVIoFtgKHFaU-98" target="43vT0w9vjVIoFtgKHFaU-96">
          <mxGeometry relative="1" as="geometry" />
        </mxCell>
        <mxCell id="43vT0w9vjVIoFtgKHFaU-98" value="day" style="ellipse;whiteSpace=wrap;html=1;align=center;fontSize=12;" vertex="1" parent="1">
          <mxGeometry x="355" y="585" width="30" height="20" as="geometry" />
        </mxCell>
        <mxCell id="43vT0w9vjVIoFtgKHFaU-99" style="edgeStyle=none;rounded=0;orthogonalLoop=1;jettySize=auto;html=1;exitX=0.5;exitY=0;exitDx=0;exitDy=0;fontSize=12;endArrow=none;endFill=0;entryX=0.5;entryY=1;entryDx=0;entryDy=0;" edge="1" parent="1" source="43vT0w9vjVIoFtgKHFaU-100" target="43vT0w9vjVIoFtgKHFaU-96">
          <mxGeometry relative="1" as="geometry">
            <mxPoint x="325" y="570" as="targetPoint" />
          </mxGeometry>
        </mxCell>
        <mxCell id="43vT0w9vjVIoFtgKHFaU-100" value="month&lt;span style=&quot;color: rgba(0, 0, 0, 0); font-family: monospace; font-size: 0px; text-align: start;&quot;&gt;%3CmxGraphModel%3E%3Croot%3E%3CmxCell%20id%3D%220%22%2F%3E%3CmxCell%20id%3D%221%22%20parent%3D%220%22%2F%3E%3CmxCell%20id%3D%222%22%20value%3D%22Result%22%20style%3D%22ellipse%3BwhiteSpace%3Dwrap%3Bhtml%3D1%3Balign%3Dcenter%3B%22%20vertex%3D%221%22%20parent%3D%221%22%3E%3CmxGeometry%20x%3D%22400%22%20y%3D%22270%22%20width%3D%2250%22%20height%3D%2220%22%20as%3D%22geometry%22%2F%3E%3C%2FmxCell%3E%3C%2Froot%3E%3C%2FmxGraphModel%3E&lt;/span&gt;" style="ellipse;whiteSpace=wrap;html=1;align=center;" vertex="1" parent="1">
          <mxGeometry x="318" y="565" width="50" height="20" as="geometry" />
        </mxCell>
        <mxCell id="43vT0w9vjVIoFtgKHFaU-101" style="edgeStyle=none;rounded=0;orthogonalLoop=1;jettySize=auto;html=1;exitX=0.5;exitY=0;exitDx=0;exitDy=0;entryX=0.5;entryY=1;entryDx=0;entryDy=0;fontSize=12;endArrow=none;endFill=0;" edge="1" parent="1" source="43vT0w9vjVIoFtgKHFaU-102" target="43vT0w9vjVIoFtgKHFaU-96">
          <mxGeometry relative="1" as="geometry" />
        </mxCell>
        <mxCell id="43vT0w9vjVIoFtgKHFaU-102" value="year" style="ellipse;whiteSpace=wrap;html=1;align=center;" vertex="1" parent="1">
          <mxGeometry x="385" y="570" width="40" height="20" as="geometry" />
        </mxCell>
        <mxCell id="43vT0w9vjVIoFtgKHFaU-105" value="time" style="ellipse;whiteSpace=wrap;html=1;align=center;fontSize=12;" vertex="1" parent="1">
          <mxGeometry x="400" y="520" width="40" height="20" as="geometry" />
        </mxCell>
        <mxCell id="43vT0w9vjVIoFtgKHFaU-108" value="duration" style="ellipse;whiteSpace=wrap;html=1;align=center;fontSize=12;" vertex="1" parent="1">
          <mxGeometry x="440" y="500" width="50" height="20" as="geometry" />
        </mxCell>
        <mxCell id="43vT0w9vjVIoFtgKHFaU-110" value="f_name" style="ellipse;whiteSpace=wrap;html=1;align=center;fontSize=12;" vertex="1" parent="1">
          <mxGeometry x="745" y="275" width="50" height="20" as="geometry" />
        </mxCell>
        <mxCell id="43vT0w9vjVIoFtgKHFaU-111" value="l_name" style="ellipse;whiteSpace=wrap;html=1;align=center;fontSize=12;" vertex="1" parent="1">
          <mxGeometry x="790" y="295" width="50" height="20" as="geometry" />
        </mxCell>
        <mxCell id="43vT0w9vjVIoFtgKHFaU-116" value="&lt;span style=&quot;border-bottom: 1px dotted&quot;&gt;game_number&lt;/span&gt;" style="ellipse;whiteSpace=wrap;html=1;align=center;fontSize=12;" vertex="1" parent="1">
          <mxGeometry x="255" y="512.5" width="90" height="35" as="geometry" />
        </mxCell>
        <mxCell id="43vT0w9vjVIoFtgKHFaU-117" value="&lt;span style=&quot;border-bottom: 1px dotted&quot;&gt;roster_number&lt;/span&gt;" style="ellipse;whiteSpace=wrap;html=1;align=center;fontSize=12;" vertex="1" parent="1">
          <mxGeometry x="510" y="360" width="100" height="30" as="geometry" />
        </mxCell>
        <mxCell id="43vT0w9vjVIoFtgKHFaU-125" style="edgeStyle=none;rounded=0;orthogonalLoop=1;jettySize=auto;html=1;exitX=0.5;exitY=1;exitDx=0;exitDy=0;entryX=0.5;entryY=0;entryDx=0;entryDy=0;fontSize=12;endArrow=none;endFill=0;" edge="1" parent="1" source="43vT0w9vjVIoFtgKHFaU-119" target="43vT0w9vjVIoFtgKHFaU-120">
          <mxGeometry relative="1" as="geometry" />
        </mxCell>
        <mxCell id="43vT0w9vjVIoFtgKHFaU-119" value="start_date" style="ellipse;whiteSpace=wrap;html=1;align=center;" vertex="1" parent="1">
          <mxGeometry x="700" y="307.5" width="80" height="20" as="geometry" />
        </mxCell>
        <mxCell id="43vT0w9vjVIoFtgKHFaU-120" value="day" style="ellipse;whiteSpace=wrap;html=1;align=center;fontSize=12;" vertex="1" parent="1">
          <mxGeometry x="705" y="342.5" width="30" height="20" as="geometry" />
        </mxCell>
        <mxCell id="43vT0w9vjVIoFtgKHFaU-121" style="edgeStyle=none;rounded=0;orthogonalLoop=1;jettySize=auto;html=1;exitX=0.5;exitY=0;exitDx=0;exitDy=0;fontSize=12;endArrow=none;endFill=0;entryX=0.5;entryY=1;entryDx=0;entryDy=0;" edge="1" parent="1" source="43vT0w9vjVIoFtgKHFaU-122" target="43vT0w9vjVIoFtgKHFaU-119">
          <mxGeometry relative="1" as="geometry">
            <mxPoint x="720" y="292.5" as="targetPoint" />
          </mxGeometry>
        </mxCell>
        <mxCell id="43vT0w9vjVIoFtgKHFaU-122" value="month&lt;span style=&quot;color: rgba(0, 0, 0, 0); font-family: monospace; font-size: 0px; text-align: start;&quot;&gt;%3CmxGraphModel%3E%3Croot%3E%3CmxCell%20id%3D%220%22%2F%3E%3CmxCell%20id%3D%221%22%20parent%3D%220%22%2F%3E%3CmxCell%20id%3D%222%22%20value%3D%22Result%22%20style%3D%22ellipse%3BwhiteSpace%3Dwrap%3Bhtml%3D1%3Balign%3Dcenter%3B%22%20vertex%3D%221%22%20parent%3D%221%22%3E%3CmxGeometry%20x%3D%22400%22%20y%3D%22270%22%20width%3D%2250%22%20height%3D%2220%22%20as%3D%22geometry%22%2F%3E%3C%2FmxCell%3E%3C%2Froot%3E%3C%2FmxGraphModel%3E&lt;/span&gt;" style="ellipse;whiteSpace=wrap;html=1;align=center;" vertex="1" parent="1">
          <mxGeometry x="715" y="370" width="50" height="20" as="geometry" />
        </mxCell>
        <mxCell id="43vT0w9vjVIoFtgKHFaU-123" style="edgeStyle=none;rounded=0;orthogonalLoop=1;jettySize=auto;html=1;exitX=0.5;exitY=0;exitDx=0;exitDy=0;entryX=0.5;entryY=1;entryDx=0;entryDy=0;fontSize=12;endArrow=none;endFill=0;" edge="1" parent="1" source="43vT0w9vjVIoFtgKHFaU-124" target="43vT0w9vjVIoFtgKHFaU-119">
          <mxGeometry relative="1" as="geometry" />
        </mxCell>
        <mxCell id="43vT0w9vjVIoFtgKHFaU-124" value="year" style="ellipse;whiteSpace=wrap;html=1;align=center;" vertex="1" parent="1">
          <mxGeometry x="750" y="342.5" width="40" height="20" as="geometry" />
        </mxCell>
      </root>
    </mxGraphModel>
  </diagram>
</mxfile>
